<?xml version="1.0" standalone="no"?><!DOCTYPE svg PUBLIC "-//W3C//DTD SVG 1.1//EN" "http://www.w3.org/Graphics/SVG/1.1/DTD/svg11.dtd"><svg class="icon" width="24" height="24" viewBox="0 0 1024 1024" version="1.1" xmlns="http://www.w3.org/2000/svg"><path d="M651.47870937 32A220.73806406 220.73806406 0 0 1 840.25806406 138.21935469l66.64258125-13.84258032a30.96774187 30.96774187 0 0 1 16.10322563 59.70580594l-3.49935469 0.9290325-54.50322562 11.33419406a220.86193594 220.86193594 0 0 1-260.81032313 272.33032219l100.738065 120.37161281a112.78451625 112.78451625 0 0 1 214.69935469 48.30967782v294.47225812a30.96774187 30.96774187 0 1 1-61.93548374 0v-294.50322656a50.8490325 50.8490325 0 0 0-101.66709657 0v17.96129062c0 1.79612906-0.15483844 3.56129062-0.43354875 5.29548375a112.90838719 112.90838719 0 0 1-23.19483844 113.96129063l-0.49548375 0.55741969a89.03225812 89.03225812 0 0 1-131.82967781-0.55741969l-37.09935468-41.18709656a16.3509675 16.3509675 0 0 0-28.52129064 10.93161281v148.24258031a65.43483844 65.43483844 0 0 1-65.43483843 65.46580688H118.70967781a55.74193594 55.74193594 0 0 1-55.74193594-55.74193594v-86.70967688A524.90322563 524.90322563 0 0 1 386.54967781 330.83870938l50.9729025-22.91612907a221.10967781 221.10967781 0 0 1-6.90580594-52.67612906 31.61806406 31.61806406 0 0 1 0.30967688-14.12128969l0.18580687-3.03483937A220.89290345 220.89290345 0 0 1 651.47870937 32z m-207.94838718 341.07870938l-33.22838625 14.92645218A462.96774188 462.96774188 0 0 0 124.90322563 815.54580687v80.51612907h344.14451625c1.92 0 3.49935469-1.57935469 3.49935467-3.53032313v-148.24258031a78.28645125 78.28645125 0 0 1 136.47483939-52.39741969l37.09935469 41.18709657a27.09677437 27.09677437 0 0 0 40.13419312 0.18580687l0.49548375-0.55741968a50.97290345 50.97290345 0 0 0 1.51741969-67.10709657l-244.738065-292.52129063z m360.74322656-164.06709657L493.88387094 273.54838719a158.95741969 158.95741969 0 1 0 310.38967781-64.56774188zM651.47870937 93.93548375a158.98838719 158.98838719 0 0 0-152.88774187 115.35483844l275.70580688-57.29032219A158.61677438 158.61677438 0 0 0 651.47870937 93.93548375z" fill="#333333" /></svg>
