<?xml version="1.0" standalone="no"?><!DOCTYPE svg PUBLIC "-//W3C//DTD SVG 1.1//EN" "http://www.w3.org/Graphics/SVG/1.1/DTD/svg11.dtd"><svg class="icon" width="24" height="24" viewBox="0 0 1024 1024" version="1.1" xmlns="http://www.w3.org/2000/svg"><path d="M273.066667 392.533333h8.533333c32.853333 0 59.733333 26.88 59.733333 59.733334v298.666666c0 32.853333-26.88 59.733333-59.733333 59.733334h-8.533333c-32.853333 0-59.733333-26.88-59.733334-59.733334v-298.666666c0-32.853333 26.88-59.733333 59.733334-59.733334zM512 213.333333c32.853333 0 59.733333 26.88 59.733333 59.733334v477.866666c0 32.853333-26.88 59.733333-59.733333 59.733334-32.853333 0-59.733333-26.88-59.733333-59.733334V273.066667c0-32.853333 26.88-59.733333 59.733333-59.733334z m238.933333 341.333334c32.853333 0 59.733333 26.88 59.733334 59.733333v136.533333c0 32.853333-26.88 59.733333-59.733334 59.733334-32.853333 0-59.733333-26.88-59.733333-59.733334v-136.533333c0-32.853333 26.88-59.733333 59.733333-59.733333z" fill="#ffffff" /></svg>
