<svg width="96" height="97" xmlns="http://www.w3.org/2000/svg" xmlns:xlink="http://www.w3.org/1999/xlink" xml:space="preserve" overflow="hidden"><g transform="translate(-1052 -524)"><g><g><g><g><path d="M1096 605 1094 605 1094 601 1066 601 1066 605 1064 605C1061.8 605 1060 606.8 1060 609 1060 611.2 1061.8 613 1064 613L1096 613C1098.2 613 1100 611.2 1100 609 1100 606.8 1098.2 605 1096 605Z" fill="#000000" fill-rule="nonzero" fill-opacity="1"/><path d="M1095.9 585.1C1097.1 583.9 1097.1 582 1095.9 580.9L1080.1 565.1C1078.9 563.9 1077 563.9 1075.9 565.1L1072 569 1092 589 1095.9 585.1Z" fill="#000000" fill-rule="nonzero" fill-opacity="1"/><path d="M1119.9 556.9C1121.1 558.1 1123 558.1 1124.1 556.9L1128 553 1108 533 1104.1 536.9C1102.9 538.1 1102.9 540 1104.1 541.1L1119.9 556.9Z" fill="#000000" fill-rule="nonzero" fill-opacity="1"/><path d="M1139 592 1112 565 1118 559 1102 543 1082 563 1098 579 1106 571 1133 598C1134.7 599.7 1137.3 599.7 1139 598 1140.7 596.3 1140.7 593.7 1139 592Z" fill="#000000" fill-rule="nonzero" fill-opacity="1"/></g></g></g></g></g></svg>