<svg width="154" height="154" xmlns="http://www.w3.org/2000/svg" xmlns:xlink="http://www.w3.org/1999/xlink" xml:space="preserve" overflow="hidden"><g transform="translate(-828 -110)"><g><g><g><g><path d="M918.25 128.531C918.25 135.573 912.542 141.281 905.5 141.281 898.458 141.281 892.75 135.573 892.75 128.531 892.75 121.49 898.458 115.781 905.5 115.781 912.542 115.781 918.25 121.49 918.25 128.531Z" fill="#00B050" fill-rule="nonzero" fill-opacity="1"/><path d="M940.244 194.194 931.319 156.262C931 154.988 930.362 153.712 929.406 152.756 925.581 149.569 921.119 147.337 916.019 145.744 912.513 145.106 909.006 144.469 905.5 144.469 901.994 144.469 898.487 145.106 894.981 146.062 889.881 147.337 885.419 149.887 881.594 153.075 880.638 154.031 880 155.306 879.681 156.581L870.756 194.512C870.756 194.831 870.438 195.469 870.438 196.106 870.438 199.613 873.306 202.481 876.812 202.481 879.681 202.481 882.231 200.25 882.869 197.7L889.562 169.969 889.562 259.219 902.312 259.219 902.312 201.844 908.688 201.844 908.688 259.219 921.438 259.219 921.438 169.65 928.131 197.381C928.769 199.931 931.319 202.163 934.188 202.163 937.694 202.163 940.562 199.294 940.562 195.788 940.562 195.15 940.244 194.512 940.244 194.194Z" fill="#00B050" fill-rule="nonzero" fill-opacity="1"/></g></g></g></g></g></svg>